<?xml version="1.0" encoding="UTF-8" standalone="no" ?>
<!DOCTYPE svg PUBLIC "-//W3C//DTD SVG 1.1//EN"
  "http://www.w3.org/Graphics/SVG/1.1/DTD/svg11.dtd">
<svg
  width="100%"
  height="100%"
  viewBox="0 0 512 512"
  version="1.1"
  xmlns="http://www.w3.org/2000/svg"
  xmlns:xlink="http://www.w3.org/1999/xlink"
  xml:space="preserve"
  xmlns:serif="http://www.serif.com/"
  style="fill-rule:evenodd;clip-rule:evenodd;stroke-linejoin:round;stroke-miterlimit:2;"
>
    <g transform="matrix(1,0,0,1,49.629,-1.12681)">
        <path
      d="M311.95,408.745L311.95,425.499C311.95,460.962 283.159,489.754 247.695,489.754C247.695,489.754 164.992,489.754 164.992,489.754C129.529,489.754 100.737,460.962 100.737,425.499L100.737,88.755C100.737,53.291 129.529,24.5 164.992,24.5L247.695,24.5C283.159,24.5 311.95,53.291 311.95,88.755L311.95,194.919C363.932,202.772 403.825,247.68 403.825,301.832C403.825,355.984 363.932,400.892 311.95,408.745ZM279.44,194.919L279.44,88.755C279.44,71.234 265.216,57.01 247.695,57.01C247.695,57.01 164.992,57.01 164.992,57.01C147.471,57.01 133.247,71.234 133.247,88.755L133.247,425.499C133.247,443.019 147.471,457.244 164.992,457.244L247.695,457.244C265.216,457.244 279.44,443.019 279.44,425.499L279.44,408.745C227.459,400.892 187.566,355.984 187.566,301.832C187.566,247.68 227.459,202.772 279.44,194.919ZM279.695,285.832L243.334,285.832C234.503,285.832 227.334,293.001 227.334,301.832C227.334,310.663 234.503,317.832 243.334,317.832L279.695,317.832L279.695,354.193C279.695,363.024 286.865,370.193 295.695,370.193C304.526,370.193 311.695,363.024 311.695,354.193L311.695,317.832L348.057,317.832C356.887,317.832 364.057,310.663 364.057,301.832C364.057,293.001 356.887,285.832 348.057,285.832L311.695,285.832L311.695,249.471C311.695,240.64 304.526,233.471 295.695,233.471C286.865,233.471 279.695,240.64 279.695,249.471L279.695,285.832Z"
      style="fill:#314fe6;"
    />
    </g>
</svg>
