<?xml version="1.0" encoding="UTF-8" standalone="no"?>
<!DOCTYPE svg PUBLIC "-//W3C//DTD SVG 1.1//EN" "http://www.w3.org/Graphics/SVG/1.1/DTD/svg11.dtd">
<svg width="100%" height="100%" viewBox="0 0 1024 1024" version="1.1" xmlns="http://www.w3.org/2000/svg" xmlns:xlink="http://www.w3.org/1999/xlink" xml:space="preserve" xmlns:serif="http://www.serif.com/" style="fill-rule:evenodd;clip-rule:evenodd;stroke-linejoin:round;stroke-miterlimit:2;">
    <g transform="matrix(1.27739,0,0,1.27739,117.549,-26.5712)">
        <g transform="matrix(4.01736e-17,0.952058,-0.952058,4.01736e-17,644.448,-380.847)">
            <path d="M500.639,95.352L500.639,439.72L670.679,439.72L670.679,265.391C670.679,171.481 594.55,95.352 500.639,95.352Z" style="fill:white;fill-opacity:0.71;"/>
        </g>
        <g transform="matrix(0.952058,-1.34717e-16,-1.34717e-16,-0.952058,-412.715,845.187)">
            <path d="M500.639,95.352L500.639,360.735L670.679,372.865L670.679,265.391C670.679,171.481 594.55,95.352 500.639,95.352Z" style="fill:white;fill-opacity:0.71;"/>
        </g>
        <g transform="matrix(1,0,0,1,0,-87.1433)">
            <rect x="63.922" y="344.822" width="161.888" height="242.377" style="fill:white;fill-opacity:0.71;"/>
        </g>
        <g transform="matrix(-0.952058,0,0,0.952058,702.447,410.121)">
            <path d="M500.639,-75.013C594.55,-75.013 670.679,1.116 670.679,95.027L670.679,265.391C670.679,171.481 594.55,95.352 500.639,95.352L500.639,95.027L450.737,95.027C356.827,95.027 280.697,18.897 280.697,-75.013L500.639,-75.013" style="fill:white;"/>
        </g>
        <g transform="matrix(1,0,0,1,-487.086,-192.519)">
            <path d="M712.895,450.197C757.599,450.197 798.071,432.078 827.367,402.782C856.663,373.486 874.783,333.014 874.783,288.31L712.895,288.764C668.191,288.764 627.719,306.884 598.424,336.18C569.128,365.476 551.008,405.948 551.008,450.652L551.008,612.085C551.008,567.381 569.128,526.909 598.424,497.613C627.719,468.317 668.191,450.197 712.895,450.197Z" style="fill:white;"/>
        </g>
    </g>
</svg>
